<?xml version="1.0" standalone="no"?>
<!DOCTYPE svg PUBLIC "-//W3C//DTD SVG 20010904//EN"
 "http://www.w3.org/TR/2001/REC-SVG-20010904/DTD/svg10.dtd">
<svg version="1.0" xmlns="http://www.w3.org/2000/svg"
 width="500.000000pt" height="500.000000pt" viewBox="0 0 500.000000 500.000000"
 preserveAspectRatio="xMidYMid meet">

<g transform="translate(0.000000,500.000000) scale(0.100000,-0.100000)"
fill="#000000" stroke="none">
<path d="M0 2500 l0 -2500 2500 0 2500 0 0 2500 0 2500 -2500 0 -2500 0 0
-2500z m1666 1142 c10 -7 66 -136 549 -1257 309 -716 308 -716 316 -707 3 4
59 142 124 307 110 281 204 509 440 1070 53 127 128 309 167 405 38 96 75 178
81 182 7 4 121 8 255 8 l242 0 0 -60 0 -60 -32 0 c-113 -2 -178 -71 -198 -209
-8 -55 0 -234 35 -848 25 -428 48 -844 52 -925 l6 -148 124 0 123 0 0 -75 0
-75 -380 0 -380 0 0 60 c0 56 2 60 23 60 44 0 117 32 142 61 38 46 55 119 55
243 0 132 -78 1468 -88 1510 -6 24 -21 -7 -109 -225 -93 -231 -174 -433 -571
-1414 l-130 -320 -54 -3 -53 -2 -174 392 c-404 910 -512 1161 -621 1448 -35
91 -66 168 -70 173 -6 7 -22 -482 -40 -1258 -5 -225 -12 -449 -15 -496 l-6
-86 130 5 131 5 0 -71 c0 -66 -2 -72 -22 -77 -13 -3 -160 -5 -328 -3 l-305 3
-3 58 c-3 57 -3 57 26 57 48 0 120 30 146 61 30 35 43 77 57 179 8 67 79 1702
79 1842 l0 56 -120 -5 -120 -6 0 70 c0 38 3 73 6 76 9 9 498 7 510 -1z"/>
</g>
</svg>
